<mxfile host="app.diagrams.net" agent="Mozilla/5.0 (X11; Ubuntu; Linux x86_64; rv:134.0) Gecko/20100101 Firefox/134.0" version="25.0.3">
  <diagram name="Page-1" id="RH8Mr-iXptGqazAKIKMD">
    <mxGraphModel dx="1368" dy="790" grid="1" gridSize="10" guides="1" tooltips="1" connect="1" arrows="1" fold="1" page="1" pageScale="1" pageWidth="850" pageHeight="1100" math="0" shadow="0">
      <root>
        <mxCell id="0" />
        <mxCell id="1" parent="0" />
        <mxCell id="-d5FogDDY8Z_XDZs2fWB-1" value="Patient" style="shape=umlActor;verticalLabelPosition=bottom;verticalAlign=top;html=1;outlineConnect=0;" parent="1" vertex="1">
          <mxGeometry x="50" y="130" width="30" height="60" as="geometry" />
        </mxCell>
        <mxCell id="-d5FogDDY8Z_XDZs2fWB-5" value="Automated Health Clinic Management System" style="swimlane;whiteSpace=wrap;html=1;" parent="1" vertex="1">
          <mxGeometry x="120" y="80" width="600" height="630" as="geometry" />
        </mxCell>
        <mxCell id="-d5FogDDY8Z_XDZs2fWB-9" value="&lt;font style=&quot;font-size: 20px;&quot;&gt;Register Patient&lt;br&gt;&lt;/font&gt;" style="ellipse;whiteSpace=wrap;html=1;" parent="-d5FogDDY8Z_XDZs2fWB-5" vertex="1">
          <mxGeometry x="10" y="45" width="140" height="70" as="geometry" />
        </mxCell>
        <mxCell id="-d5FogDDY8Z_XDZs2fWB-10" value="&lt;font style=&quot;font-size: 20px;&quot;&gt;Book Appointment&lt;br&gt;&lt;/font&gt;" style="ellipse;whiteSpace=wrap;html=1;" parent="-d5FogDDY8Z_XDZs2fWB-5" vertex="1">
          <mxGeometry x="115" y="200" width="140" height="70" as="geometry" />
        </mxCell>
        <mxCell id="-d5FogDDY8Z_XDZs2fWB-15" value="&lt;font style=&quot;font-size: 14px;&quot;&gt;&amp;lt;include&amp;gt;&lt;/font&gt;" style="endArrow=open;endSize=12;dashed=1;html=1;rounded=0;exitX=0.5;exitY=0;exitDx=0;exitDy=0;entryX=0.5;entryY=1;entryDx=0;entryDy=0;" parent="-d5FogDDY8Z_XDZs2fWB-5" source="-d5FogDDY8Z_XDZs2fWB-10" target="-d5FogDDY8Z_XDZs2fWB-9" edge="1">
          <mxGeometry width="160" relative="1" as="geometry">
            <mxPoint x="220" y="260" as="sourcePoint" />
            <mxPoint x="380" y="260" as="targetPoint" />
          </mxGeometry>
        </mxCell>
        <mxCell id="-d5FogDDY8Z_XDZs2fWB-16" value="&lt;div&gt;&lt;font style=&quot;font-size: 18px;&quot;&gt;View Medical History&lt;br&gt;&lt;/font&gt;&lt;/div&gt;" style="ellipse;whiteSpace=wrap;html=1;" parent="-d5FogDDY8Z_XDZs2fWB-5" vertex="1">
          <mxGeometry x="50" y="350" width="140" height="70" as="geometry" />
        </mxCell>
        <mxCell id="-d5FogDDY8Z_XDZs2fWB-20" value="&lt;font style=&quot;font-size: 14px;&quot;&gt;&amp;lt;extend&amp;gt;&lt;/font&gt;" style="endArrow=block;endSize=16;endFill=0;html=1;rounded=0;exitX=0.5;exitY=1;exitDx=0;exitDy=0;entryX=0.5;entryY=0;entryDx=0;entryDy=0;" parent="-d5FogDDY8Z_XDZs2fWB-5" source="-d5FogDDY8Z_XDZs2fWB-10" target="-d5FogDDY8Z_XDZs2fWB-16" edge="1">
          <mxGeometry x="0.1812" y="4" width="160" relative="1" as="geometry">
            <mxPoint x="220" y="260" as="sourcePoint" />
            <mxPoint x="380" y="260" as="targetPoint" />
            <mxPoint as="offset" />
          </mxGeometry>
        </mxCell>
        <mxCell id="-d5FogDDY8Z_XDZs2fWB-21" value="&lt;font style=&quot;font-size: 14px;&quot;&gt;&amp;lt;include&amp;gt;&lt;/font&gt;" style="endArrow=open;endSize=12;dashed=1;html=1;rounded=0;exitX=0;exitY=0.5;exitDx=0;exitDy=0;entryX=1;entryY=0.5;entryDx=0;entryDy=0;" parent="-d5FogDDY8Z_XDZs2fWB-5" source="-d5FogDDY8Z_XDZs2fWB-22" target="-d5FogDDY8Z_XDZs2fWB-10" edge="1">
          <mxGeometry width="160" relative="1" as="geometry">
            <mxPoint x="230" y="255" as="sourcePoint" />
            <mxPoint x="230" y="210" as="targetPoint" />
          </mxGeometry>
        </mxCell>
        <mxCell id="-d5FogDDY8Z_XDZs2fWB-22" value="&lt;font style=&quot;font-size: 20px;&quot;&gt;Add Prescription&lt;br&gt;&lt;/font&gt;" style="ellipse;whiteSpace=wrap;html=1;" parent="-d5FogDDY8Z_XDZs2fWB-5" vertex="1">
          <mxGeometry x="430" y="200" width="140" height="70" as="geometry" />
        </mxCell>
        <mxCell id="-d5FogDDY8Z_XDZs2fWB-24" value="&lt;font style=&quot;font-size: 20px;&quot;&gt;Register Doctor&lt;br&gt;&lt;/font&gt;" style="ellipse;whiteSpace=wrap;html=1;" parent="-d5FogDDY8Z_XDZs2fWB-5" vertex="1">
          <mxGeometry x="445" y="45" width="140" height="70" as="geometry" />
        </mxCell>
        <mxCell id="-d5FogDDY8Z_XDZs2fWB-26" value="&lt;font style=&quot;font-size: 14px;&quot;&gt;&amp;lt;include&amp;gt;&lt;/font&gt;" style="endArrow=open;endSize=12;dashed=1;html=1;rounded=0;exitX=0.8;exitY=0.057;exitDx=0;exitDy=0;entryX=0;entryY=1;entryDx=0;entryDy=0;exitPerimeter=0;" parent="-d5FogDDY8Z_XDZs2fWB-5" source="-d5FogDDY8Z_XDZs2fWB-10" target="-d5FogDDY8Z_XDZs2fWB-24" edge="1">
          <mxGeometry x="-0.0013" width="160" relative="1" as="geometry">
            <mxPoint x="130" y="220" as="sourcePoint" />
            <mxPoint x="130" y="125" as="targetPoint" />
            <mxPoint as="offset" />
          </mxGeometry>
        </mxCell>
        <mxCell id="-d5FogDDY8Z_XDZs2fWB-27" value="&lt;font style=&quot;font-size: 20px;&quot;&gt;Assign ID &lt;/font&gt;" style="ellipse;whiteSpace=wrap;html=1;" parent="-d5FogDDY8Z_XDZs2fWB-5" vertex="1">
          <mxGeometry x="235" y="45" width="140" height="70" as="geometry" />
        </mxCell>
        <mxCell id="-d5FogDDY8Z_XDZs2fWB-29" value="&lt;font style=&quot;font-size: 14px;&quot;&gt;&amp;lt;include&amp;gt;&lt;/font&gt;" style="endArrow=open;endSize=12;dashed=1;html=1;rounded=0;exitX=0;exitY=0.5;exitDx=0;exitDy=0;entryX=1;entryY=0.5;entryDx=0;entryDy=0;" parent="-d5FogDDY8Z_XDZs2fWB-5" source="-d5FogDDY8Z_XDZs2fWB-27" target="-d5FogDDY8Z_XDZs2fWB-9" edge="1">
          <mxGeometry width="160" relative="1" as="geometry">
            <mxPoint x="195" y="210" as="sourcePoint" />
            <mxPoint x="130" y="125" as="targetPoint" />
          </mxGeometry>
        </mxCell>
        <mxCell id="-d5FogDDY8Z_XDZs2fWB-31" value="&lt;font style=&quot;font-size: 14px;&quot;&gt;&amp;lt;include&amp;gt;&lt;/font&gt;" style="endArrow=open;endSize=12;dashed=1;html=1;rounded=0;entryX=0;entryY=0.5;entryDx=0;entryDy=0;exitX=1;exitY=0.5;exitDx=0;exitDy=0;" parent="-d5FogDDY8Z_XDZs2fWB-5" source="-d5FogDDY8Z_XDZs2fWB-27" target="-d5FogDDY8Z_XDZs2fWB-24" edge="1">
          <mxGeometry y="-10" width="160" relative="1" as="geometry">
            <mxPoint x="380" y="90" as="sourcePoint" />
            <mxPoint x="140" y="135" as="targetPoint" />
            <mxPoint as="offset" />
          </mxGeometry>
        </mxCell>
        <mxCell id="w92nHLDB4MT8UoJLqUzn-2" value="&lt;font style=&quot;font-size: 20px;&quot;&gt;Make a bill&lt;br&gt;&lt;/font&gt;" style="ellipse;whiteSpace=wrap;html=1;" vertex="1" parent="-d5FogDDY8Z_XDZs2fWB-5">
          <mxGeometry x="430" y="350" width="140" height="70" as="geometry" />
        </mxCell>
        <mxCell id="w92nHLDB4MT8UoJLqUzn-4" value="&lt;font style=&quot;font-size: 14px;&quot;&gt;&amp;lt;include&amp;gt;&lt;/font&gt;" style="endArrow=open;endSize=12;dashed=1;html=1;rounded=0;entryX=0.5;entryY=0;entryDx=0;entryDy=0;exitX=0.5;exitY=1;exitDx=0;exitDy=0;" edge="1" parent="-d5FogDDY8Z_XDZs2fWB-5" source="-d5FogDDY8Z_XDZs2fWB-22" target="w92nHLDB4MT8UoJLqUzn-2">
          <mxGeometry width="160" relative="1" as="geometry">
            <mxPoint x="220" y="270" as="sourcePoint" />
            <mxPoint x="380" y="270" as="targetPoint" />
          </mxGeometry>
        </mxCell>
        <mxCell id="w92nHLDB4MT8UoJLqUzn-5" value="&lt;font style=&quot;font-size: 18px;&quot;&gt;&amp;nbsp;Contact Insurance Company&lt;br&gt;&lt;/font&gt;" style="ellipse;whiteSpace=wrap;html=1;" vertex="1" parent="-d5FogDDY8Z_XDZs2fWB-5">
          <mxGeometry x="430" y="520" width="140" height="70" as="geometry" />
        </mxCell>
        <mxCell id="w92nHLDB4MT8UoJLqUzn-6" value="&lt;font style=&quot;font-size: 14px;&quot;&gt;&amp;lt;extend&amp;gt;&lt;/font&gt;" style="endArrow=block;endSize=16;endFill=0;html=1;rounded=0;exitX=0.5;exitY=1;exitDx=0;exitDy=0;entryX=0.5;entryY=0;entryDx=0;entryDy=0;" edge="1" parent="-d5FogDDY8Z_XDZs2fWB-5" source="w92nHLDB4MT8UoJLqUzn-2" target="w92nHLDB4MT8UoJLqUzn-5">
          <mxGeometry width="160" relative="1" as="geometry">
            <mxPoint x="195" y="280" as="sourcePoint" />
            <mxPoint x="130" y="360" as="targetPoint" />
            <mxPoint as="offset" />
            <Array as="points" />
          </mxGeometry>
        </mxCell>
        <mxCell id="w92nHLDB4MT8UoJLqUzn-10" value="&lt;font style=&quot;font-size: 17px;&quot;&gt;&amp;nbsp;Check Insurance Coverage &lt;/font&gt;" style="ellipse;whiteSpace=wrap;html=1;" vertex="1" parent="-d5FogDDY8Z_XDZs2fWB-5">
          <mxGeometry x="240" y="360" width="140" height="70" as="geometry" />
        </mxCell>
        <mxCell id="w92nHLDB4MT8UoJLqUzn-9" value="&lt;font style=&quot;font-size: 14px;&quot;&gt;&amp;lt;extend&amp;gt;&lt;/font&gt;" style="endArrow=block;endSize=16;endFill=0;html=1;rounded=0;exitX=1;exitY=1;exitDx=0;exitDy=0;entryX=0;entryY=0;entryDx=0;entryDy=0;" edge="1" parent="-d5FogDDY8Z_XDZs2fWB-5" source="-d5FogDDY8Z_XDZs2fWB-10" target="w92nHLDB4MT8UoJLqUzn-10">
          <mxGeometry width="160" relative="1" as="geometry">
            <mxPoint x="510" y="430" as="sourcePoint" />
            <mxPoint x="280" y="360" as="targetPoint" />
            <mxPoint as="offset" />
            <Array as="points" />
          </mxGeometry>
        </mxCell>
        <mxCell id="-d5FogDDY8Z_XDZs2fWB-17" value="" style="endArrow=none;html=1;edgeStyle=orthogonalEdgeStyle;rounded=0;exitX=0.5;exitY=0.5;exitDx=0;exitDy=0;exitPerimeter=0;" parent="1" source="-d5FogDDY8Z_XDZs2fWB-1" target="-d5FogDDY8Z_XDZs2fWB-9" edge="1">
          <mxGeometry relative="1" as="geometry">
            <mxPoint x="340" y="350" as="sourcePoint" />
            <mxPoint x="120" y="170" as="targetPoint" />
          </mxGeometry>
        </mxCell>
        <mxCell id="-d5FogDDY8Z_XDZs2fWB-23" value="&lt;div&gt;Doctor&lt;/div&gt;" style="shape=umlActor;verticalLabelPosition=bottom;verticalAlign=top;html=1;outlineConnect=0;" parent="1" vertex="1">
          <mxGeometry x="780" y="130" width="30" height="60" as="geometry" />
        </mxCell>
        <mxCell id="-d5FogDDY8Z_XDZs2fWB-25" value="" style="endArrow=none;html=1;edgeStyle=orthogonalEdgeStyle;rounded=0;exitX=1;exitY=0.5;exitDx=0;exitDy=0;entryX=0.5;entryY=0.5;entryDx=0;entryDy=0;entryPerimeter=0;" parent="1" source="-d5FogDDY8Z_XDZs2fWB-24" target="-d5FogDDY8Z_XDZs2fWB-23" edge="1">
          <mxGeometry relative="1" as="geometry">
            <mxPoint x="75" y="180" as="sourcePoint" />
            <mxPoint x="180" y="180" as="targetPoint" />
          </mxGeometry>
        </mxCell>
      </root>
    </mxGraphModel>
  </diagram>
</mxfile>
